<?xml version="1.0" encoding="utf-8" standalone="no"?>
<!DOCTYPE svg PUBLIC "-//W3C//DTD SVG 1.1//EN"
  "http://www.w3.org/Graphics/SVG/1.1/DTD/svg11.dtd">
<svg xmlns:xlink="http://www.w3.org/1999/xlink" width="432pt" height="360pt" viewBox="0 0 432 360" xmlns="http://www.w3.org/2000/svg" version="1.1">
 <metadata>
  <rdf:RDF xmlns:dc="http://purl.org/dc/elements/1.1/" xmlns:cc="http://creativecommons.org/ns#" xmlns:rdf="http://www.w3.org/1999/02/22-rdf-syntax-ns#">
   <cc:Work>
    <dc:type rdf:resource="http://purl.org/dc/dcmitype/StillImage"/>
    <dc:date>2026-01-12T17:57:31.650422</dc:date>
    <dc:format>image/svg+xml</dc:format>
    <dc:creator>
     <cc:Agent>
      <dc:title>Matplotlib v3.9.4, https://matplotlib.org/</dc:title>
     </cc:Agent>
    </dc:creator>
   </cc:Work>
  </rdf:RDF>
 </metadata>
 <defs>
  <style type="text/css">*{stroke-linejoin: round; stroke-linecap: butt}</style>
 </defs>
 <g id="figure_1">
  <g id="patch_1">
   <path d="M 0 360 
L 432 360 
L 432 0 
L 0 0 
z
" style="fill: #ffffff"/>
  </g>
  <g id="axes_1">
   <g id="patch_2">
    <path d="M 76.52 293.2 
L 412.703182 293.2 
L 412.703182 40.2 
L 76.52 40.2 
z
" style="fill: #ffffff"/>
   </g>
   <g id="matplotlib.axis_1">
    <g id="xtick_1">
     <g id="line2d_1">
      <defs>
       <path id="m30e8954786" d="M 0 0 
L 0 3.5 
" style="stroke: #000000; stroke-width: 0.8"/>
      </defs>
      <g>
       <use xlink:href="#m30e8954786" x="91.801054" y="293.2" style="stroke: #000000; stroke-width: 0.8"/>
      </g>
     </g>
     <g id="text_1">
      <!-- 0 -->
      <g transform="translate(86.392929 313.117344) scale(0.17 -0.17)">
       <defs>
        <path id="DejaVuSans-30" d="M 2034 4250 
Q 1547 4250 1301 3770 
Q 1056 3291 1056 2328 
Q 1056 1369 1301 889 
Q 1547 409 2034 409 
Q 2525 409 2770 889 
Q 3016 1369 3016 2328 
Q 3016 3291 2770 3770 
Q 2525 4250 2034 4250 
z
M 2034 4750 
Q 2819 4750 3233 4129 
Q 3647 3509 3647 2328 
Q 3647 1150 3233 529 
Q 2819 -91 2034 -91 
Q 1250 -91 836 529 
Q 422 1150 422 2328 
Q 422 3509 836 4129 
Q 1250 4750 2034 4750 
z
" transform="scale(0.015625)"/>
       </defs>
       <use xlink:href="#DejaVuSans-30"/>
      </g>
     </g>
    </g>
    <g id="xtick_2">
     <g id="line2d_2">
      <g>
       <use xlink:href="#m30e8954786" x="152.925269" y="293.2" style="stroke: #000000; stroke-width: 0.8"/>
      </g>
     </g>
     <g id="text_2">
      <!-- 20 -->
      <g transform="translate(142.109019 313.117344) scale(0.17 -0.17)">
       <defs>
        <path id="DejaVuSans-32" d="M 1228 531 
L 3431 531 
L 3431 0 
L 469 0 
L 469 531 
Q 828 903 1448 1529 
Q 2069 2156 2228 2338 
Q 2531 2678 2651 2914 
Q 2772 3150 2772 3378 
Q 2772 3750 2511 3984 
Q 2250 4219 1831 4219 
Q 1534 4219 1204 4116 
Q 875 4013 500 3803 
L 500 4441 
Q 881 4594 1212 4672 
Q 1544 4750 1819 4750 
Q 2544 4750 2975 4387 
Q 3406 4025 3406 3419 
Q 3406 3131 3298 2873 
Q 3191 2616 2906 2266 
Q 2828 2175 2409 1742 
Q 1991 1309 1228 531 
z
" transform="scale(0.015625)"/>
       </defs>
       <use xlink:href="#DejaVuSans-32"/>
       <use xlink:href="#DejaVuSans-30" x="63.623047"/>
      </g>
     </g>
    </g>
    <g id="xtick_3">
     <g id="line2d_3">
      <g>
       <use xlink:href="#m30e8954786" x="214.049483" y="293.2" style="stroke: #000000; stroke-width: 0.8"/>
      </g>
     </g>
     <g id="text_3">
      <!-- 40 -->
      <g transform="translate(203.233233 313.117344) scale(0.17 -0.17)">
       <defs>
        <path id="DejaVuSans-34" d="M 2419 4116 
L 825 1625 
L 2419 1625 
L 2419 4116 
z
M 2253 4666 
L 3047 4666 
L 3047 1625 
L 3713 1625 
L 3713 1100 
L 3047 1100 
L 3047 0 
L 2419 0 
L 2419 1100 
L 313 1100 
L 313 1709 
L 2253 4666 
z
" transform="scale(0.015625)"/>
       </defs>
       <use xlink:href="#DejaVuSans-34"/>
       <use xlink:href="#DejaVuSans-30" x="63.623047"/>
      </g>
     </g>
    </g>
    <g id="xtick_4">
     <g id="line2d_4">
      <g>
       <use xlink:href="#m30e8954786" x="275.173698" y="293.2" style="stroke: #000000; stroke-width: 0.8"/>
      </g>
     </g>
     <g id="text_4">
      <!-- 60 -->
      <g transform="translate(264.357448 313.117344) scale(0.17 -0.17)">
       <defs>
        <path id="DejaVuSans-36" d="M 2113 2584 
Q 1688 2584 1439 2293 
Q 1191 2003 1191 1497 
Q 1191 994 1439 701 
Q 1688 409 2113 409 
Q 2538 409 2786 701 
Q 3034 994 3034 1497 
Q 3034 2003 2786 2293 
Q 2538 2584 2113 2584 
z
M 3366 4563 
L 3366 3988 
Q 3128 4100 2886 4159 
Q 2644 4219 2406 4219 
Q 1781 4219 1451 3797 
Q 1122 3375 1075 2522 
Q 1259 2794 1537 2939 
Q 1816 3084 2150 3084 
Q 2853 3084 3261 2657 
Q 3669 2231 3669 1497 
Q 3669 778 3244 343 
Q 2819 -91 2113 -91 
Q 1303 -91 875 529 
Q 447 1150 447 2328 
Q 447 3434 972 4092 
Q 1497 4750 2381 4750 
Q 2619 4750 2861 4703 
Q 3103 4656 3366 4563 
z
" transform="scale(0.015625)"/>
       </defs>
       <use xlink:href="#DejaVuSans-36"/>
       <use xlink:href="#DejaVuSans-30" x="63.623047"/>
      </g>
     </g>
    </g>
    <g id="xtick_5">
     <g id="line2d_5">
      <g>
       <use xlink:href="#m30e8954786" x="336.297913" y="293.2" style="stroke: #000000; stroke-width: 0.8"/>
      </g>
     </g>
     <g id="text_5">
      <!-- 80 -->
      <g transform="translate(325.481663 313.117344) scale(0.17 -0.17)">
       <defs>
        <path id="DejaVuSans-38" d="M 2034 2216 
Q 1584 2216 1326 1975 
Q 1069 1734 1069 1313 
Q 1069 891 1326 650 
Q 1584 409 2034 409 
Q 2484 409 2743 651 
Q 3003 894 3003 1313 
Q 3003 1734 2745 1975 
Q 2488 2216 2034 2216 
z
M 1403 2484 
Q 997 2584 770 2862 
Q 544 3141 544 3541 
Q 544 4100 942 4425 
Q 1341 4750 2034 4750 
Q 2731 4750 3128 4425 
Q 3525 4100 3525 3541 
Q 3525 3141 3298 2862 
Q 3072 2584 2669 2484 
Q 3125 2378 3379 2068 
Q 3634 1759 3634 1313 
Q 3634 634 3220 271 
Q 2806 -91 2034 -91 
Q 1263 -91 848 271 
Q 434 634 434 1313 
Q 434 1759 690 2068 
Q 947 2378 1403 2484 
z
M 1172 3481 
Q 1172 3119 1398 2916 
Q 1625 2713 2034 2713 
Q 2441 2713 2670 2916 
Q 2900 3119 2900 3481 
Q 2900 3844 2670 4047 
Q 2441 4250 2034 4250 
Q 1625 4250 1398 4047 
Q 1172 3844 1172 3481 
z
" transform="scale(0.015625)"/>
       </defs>
       <use xlink:href="#DejaVuSans-38"/>
       <use xlink:href="#DejaVuSans-30" x="63.623047"/>
      </g>
     </g>
    </g>
    <g id="xtick_6">
     <g id="line2d_6">
      <g>
       <use xlink:href="#m30e8954786" x="397.422128" y="293.2" style="stroke: #000000; stroke-width: 0.8"/>
      </g>
     </g>
     <g id="text_6">
      <!-- 100 -->
      <g transform="translate(381.197753 313.117344) scale(0.17 -0.17)">
       <defs>
        <path id="DejaVuSans-31" d="M 794 531 
L 1825 531 
L 1825 4091 
L 703 3866 
L 703 4441 
L 1819 4666 
L 2450 4666 
L 2450 531 
L 3481 531 
L 3481 0 
L 794 0 
L 794 531 
z
" transform="scale(0.015625)"/>
       </defs>
       <use xlink:href="#DejaVuSans-31"/>
       <use xlink:href="#DejaVuSans-30" x="63.623047"/>
       <use xlink:href="#DejaVuSans-30" x="127.246094"/>
      </g>
     </g>
    </g>
    <g id="text_7">
     <!-- Score -->
     <g transform="translate(216.04681 336.153625) scale(0.204 -0.204)">
      <defs>
       <path id="DejaVuSans-53" d="M 3425 4513 
L 3425 3897 
Q 3066 4069 2747 4153 
Q 2428 4238 2131 4238 
Q 1616 4238 1336 4038 
Q 1056 3838 1056 3469 
Q 1056 3159 1242 3001 
Q 1428 2844 1947 2747 
L 2328 2669 
Q 3034 2534 3370 2195 
Q 3706 1856 3706 1288 
Q 3706 609 3251 259 
Q 2797 -91 1919 -91 
Q 1588 -91 1214 -16 
Q 841 59 441 206 
L 441 856 
Q 825 641 1194 531 
Q 1563 422 1919 422 
Q 2459 422 2753 634 
Q 3047 847 3047 1241 
Q 3047 1584 2836 1778 
Q 2625 1972 2144 2069 
L 1759 2144 
Q 1053 2284 737 2584 
Q 422 2884 422 3419 
Q 422 4038 858 4394 
Q 1294 4750 2059 4750 
Q 2388 4750 2728 4690 
Q 3069 4631 3425 4513 
z
" transform="scale(0.015625)"/>
       <path id="DejaVuSans-63" d="M 3122 3366 
L 3122 2828 
Q 2878 2963 2633 3030 
Q 2388 3097 2138 3097 
Q 1578 3097 1268 2742 
Q 959 2388 959 1747 
Q 959 1106 1268 751 
Q 1578 397 2138 397 
Q 2388 397 2633 464 
Q 2878 531 3122 666 
L 3122 134 
Q 2881 22 2623 -34 
Q 2366 -91 2075 -91 
Q 1284 -91 818 406 
Q 353 903 353 1747 
Q 353 2603 823 3093 
Q 1294 3584 2113 3584 
Q 2378 3584 2631 3529 
Q 2884 3475 3122 3366 
z
" transform="scale(0.015625)"/>
       <path id="DejaVuSans-6f" d="M 1959 3097 
Q 1497 3097 1228 2736 
Q 959 2375 959 1747 
Q 959 1119 1226 758 
Q 1494 397 1959 397 
Q 2419 397 2687 759 
Q 2956 1122 2956 1747 
Q 2956 2369 2687 2733 
Q 2419 3097 1959 3097 
z
M 1959 3584 
Q 2709 3584 3137 3096 
Q 3566 2609 3566 1747 
Q 3566 888 3137 398 
Q 2709 -91 1959 -91 
Q 1206 -91 779 398 
Q 353 888 353 1747 
Q 353 2609 779 3096 
Q 1206 3584 1959 3584 
z
" transform="scale(0.015625)"/>
       <path id="DejaVuSans-72" d="M 2631 2963 
Q 2534 3019 2420 3045 
Q 2306 3072 2169 3072 
Q 1681 3072 1420 2755 
Q 1159 2438 1159 1844 
L 1159 0 
L 581 0 
L 581 3500 
L 1159 3500 
L 1159 2956 
Q 1341 3275 1631 3429 
Q 1922 3584 2338 3584 
Q 2397 3584 2469 3576 
Q 2541 3569 2628 3553 
L 2631 2963 
z
" transform="scale(0.015625)"/>
       <path id="DejaVuSans-65" d="M 3597 1894 
L 3597 1613 
L 953 1613 
Q 991 1019 1311 708 
Q 1631 397 2203 397 
Q 2534 397 2845 478 
Q 3156 559 3463 722 
L 3463 178 
Q 3153 47 2828 -22 
Q 2503 -91 2169 -91 
Q 1331 -91 842 396 
Q 353 884 353 1716 
Q 353 2575 817 3079 
Q 1281 3584 2069 3584 
Q 2775 3584 3186 3129 
Q 3597 2675 3597 1894 
z
M 3022 2063 
Q 3016 2534 2758 2815 
Q 2500 3097 2075 3097 
Q 1594 3097 1305 2825 
Q 1016 2553 972 2059 
L 3022 2063 
z
" transform="scale(0.015625)"/>
      </defs>
      <use xlink:href="#DejaVuSans-53"/>
      <use xlink:href="#DejaVuSans-63" x="63.476562"/>
      <use xlink:href="#DejaVuSans-6f" x="118.457031"/>
      <use xlink:href="#DejaVuSans-72" x="179.638672"/>
      <use xlink:href="#DejaVuSans-65" x="218.501953"/>
     </g>
    </g>
   </g>
   <g id="matplotlib.axis_2">
    <g id="ytick_1">
     <g id="line2d_7">
      <defs>
       <path id="mbb7a4162ae" d="M 0 0 
L -3.5 0 
" style="stroke: #000000; stroke-width: 0.8"/>
      </defs>
      <g>
       <use xlink:href="#mbb7a4162ae" x="76.52" y="281.7" style="stroke: #000000; stroke-width: 0.8"/>
      </g>
     </g>
     <g id="text_8">
      <!-- 0.0 -->
      <g transform="translate(42.484688 288.158672) scale(0.17 -0.17)">
       <defs>
        <path id="DejaVuSans-2e" d="M 684 794 
L 1344 794 
L 1344 0 
L 684 0 
L 684 794 
z
" transform="scale(0.015625)"/>
       </defs>
       <use xlink:href="#DejaVuSans-30"/>
       <use xlink:href="#DejaVuSans-2e" x="63.623047"/>
       <use xlink:href="#DejaVuSans-30" x="95.410156"/>
      </g>
     </g>
    </g>
    <g id="ytick_2">
     <g id="line2d_8">
      <g>
       <use xlink:href="#mbb7a4162ae" x="76.52" y="235.7" style="stroke: #000000; stroke-width: 0.8"/>
      </g>
     </g>
     <g id="text_9">
      <!-- 0.2 -->
      <g transform="translate(42.484688 242.158672) scale(0.17 -0.17)">
       <use xlink:href="#DejaVuSans-30"/>
       <use xlink:href="#DejaVuSans-2e" x="63.623047"/>
       <use xlink:href="#DejaVuSans-32" x="95.410156"/>
      </g>
     </g>
    </g>
    <g id="ytick_3">
     <g id="line2d_9">
      <g>
       <use xlink:href="#mbb7a4162ae" x="76.52" y="189.7" style="stroke: #000000; stroke-width: 0.8"/>
      </g>
     </g>
     <g id="text_10">
      <!-- 0.4 -->
      <g transform="translate(42.484688 196.158672) scale(0.17 -0.17)">
       <use xlink:href="#DejaVuSans-30"/>
       <use xlink:href="#DejaVuSans-2e" x="63.623047"/>
       <use xlink:href="#DejaVuSans-34" x="95.410156"/>
      </g>
     </g>
    </g>
    <g id="ytick_4">
     <g id="line2d_10">
      <g>
       <use xlink:href="#mbb7a4162ae" x="76.52" y="143.7" style="stroke: #000000; stroke-width: 0.8"/>
      </g>
     </g>
     <g id="text_11">
      <!-- 0.6 -->
      <g transform="translate(42.484688 150.158672) scale(0.17 -0.17)">
       <use xlink:href="#DejaVuSans-30"/>
       <use xlink:href="#DejaVuSans-2e" x="63.623047"/>
       <use xlink:href="#DejaVuSans-36" x="95.410156"/>
      </g>
     </g>
    </g>
    <g id="ytick_5">
     <g id="line2d_11">
      <g>
       <use xlink:href="#mbb7a4162ae" x="76.52" y="97.7" style="stroke: #000000; stroke-width: 0.8"/>
      </g>
     </g>
     <g id="text_12">
      <!-- 0.8 -->
      <g transform="translate(42.484688 104.158672) scale(0.17 -0.17)">
       <use xlink:href="#DejaVuSans-30"/>
       <use xlink:href="#DejaVuSans-2e" x="63.623047"/>
       <use xlink:href="#DejaVuSans-38" x="95.410156"/>
      </g>
     </g>
    </g>
    <g id="ytick_6">
     <g id="line2d_12">
      <g>
       <use xlink:href="#mbb7a4162ae" x="76.52" y="51.7" style="stroke: #000000; stroke-width: 0.8"/>
      </g>
     </g>
     <g id="text_13">
      <!-- 1.0 -->
      <g transform="translate(42.484688 58.158672) scale(0.17 -0.17)">
       <use xlink:href="#DejaVuSans-31"/>
       <use xlink:href="#DejaVuSans-2e" x="63.623047"/>
       <use xlink:href="#DejaVuSans-30" x="95.410156"/>
      </g>
     </g>
    </g>
    <g id="text_14">
     <!-- Density -->
     <g transform="translate(34.242125 205.477531) rotate(-90) scale(0.204 -0.204)">
      <defs>
       <path id="DejaVuSans-44" d="M 1259 4147 
L 1259 519 
L 2022 519 
Q 2988 519 3436 956 
Q 3884 1394 3884 2338 
Q 3884 3275 3436 3711 
Q 2988 4147 2022 4147 
L 1259 4147 
z
M 628 4666 
L 1925 4666 
Q 3281 4666 3915 4102 
Q 4550 3538 4550 2338 
Q 4550 1131 3912 565 
Q 3275 0 1925 0 
L 628 0 
L 628 4666 
z
" transform="scale(0.015625)"/>
       <path id="DejaVuSans-6e" d="M 3513 2113 
L 3513 0 
L 2938 0 
L 2938 2094 
Q 2938 2591 2744 2837 
Q 2550 3084 2163 3084 
Q 1697 3084 1428 2787 
Q 1159 2491 1159 1978 
L 1159 0 
L 581 0 
L 581 3500 
L 1159 3500 
L 1159 2956 
Q 1366 3272 1645 3428 
Q 1925 3584 2291 3584 
Q 2894 3584 3203 3211 
Q 3513 2838 3513 2113 
z
" transform="scale(0.015625)"/>
       <path id="DejaVuSans-73" d="M 2834 3397 
L 2834 2853 
Q 2591 2978 2328 3040 
Q 2066 3103 1784 3103 
Q 1356 3103 1142 2972 
Q 928 2841 928 2578 
Q 928 2378 1081 2264 
Q 1234 2150 1697 2047 
L 1894 2003 
Q 2506 1872 2764 1633 
Q 3022 1394 3022 966 
Q 3022 478 2636 193 
Q 2250 -91 1575 -91 
Q 1294 -91 989 -36 
Q 684 19 347 128 
L 347 722 
Q 666 556 975 473 
Q 1284 391 1588 391 
Q 1994 391 2212 530 
Q 2431 669 2431 922 
Q 2431 1156 2273 1281 
Q 2116 1406 1581 1522 
L 1381 1569 
Q 847 1681 609 1914 
Q 372 2147 372 2553 
Q 372 3047 722 3315 
Q 1072 3584 1716 3584 
Q 2034 3584 2315 3537 
Q 2597 3491 2834 3397 
z
" transform="scale(0.015625)"/>
       <path id="DejaVuSans-69" d="M 603 3500 
L 1178 3500 
L 1178 0 
L 603 0 
L 603 3500 
z
M 603 4863 
L 1178 4863 
L 1178 4134 
L 603 4134 
L 603 4863 
z
" transform="scale(0.015625)"/>
       <path id="DejaVuSans-74" d="M 1172 4494 
L 1172 3500 
L 2356 3500 
L 2356 3053 
L 1172 3053 
L 1172 1153 
Q 1172 725 1289 603 
Q 1406 481 1766 481 
L 2356 481 
L 2356 0 
L 1766 0 
Q 1100 0 847 248 
Q 594 497 594 1153 
L 594 3053 
L 172 3053 
L 172 3500 
L 594 3500 
L 594 4494 
L 1172 4494 
z
" transform="scale(0.015625)"/>
       <path id="DejaVuSans-79" d="M 2059 -325 
Q 1816 -950 1584 -1140 
Q 1353 -1331 966 -1331 
L 506 -1331 
L 506 -850 
L 844 -850 
Q 1081 -850 1212 -737 
Q 1344 -625 1503 -206 
L 1606 56 
L 191 3500 
L 800 3500 
L 1894 763 
L 2988 3500 
L 3597 3500 
L 2059 -325 
z
" transform="scale(0.015625)"/>
      </defs>
      <use xlink:href="#DejaVuSans-44"/>
      <use xlink:href="#DejaVuSans-65" x="77.001953"/>
      <use xlink:href="#DejaVuSans-6e" x="138.525391"/>
      <use xlink:href="#DejaVuSans-73" x="201.904297"/>
      <use xlink:href="#DejaVuSans-69" x="254.003906"/>
      <use xlink:href="#DejaVuSans-74" x="281.787109"/>
      <use xlink:href="#DejaVuSans-79" x="320.996094"/>
     </g>
    </g>
   </g>
   <g id="line2d_13">
    <path d="M 91.801054 281.7 
L 93.329159 281.401 
L 94.857264 279.676 
L 96.38537 279.239 
L 97.913475 278.664 
L 99.441581 278.227 
L 104.025897 275.996 
L 105.554002 275.766 
L 107.082107 274.57 
L 110.138318 272.73 
L 111.666424 272.316 
L 116.25074 270.154 
L 117.778845 269.878 
L 119.30695 269.326 
L 120.835056 268.981 
L 122.363161 268.498 
L 123.891267 268.268 
L 125.419372 267.325 
L 126.947477 266.842 
L 128.475583 265.715 
L 133.059899 263.369 
L 134.588004 262.38 
L 136.11611 261.736 
L 139.17232 259.965 
L 143.756636 257.964 
L 145.284742 257.481 
L 146.812847 256.492 
L 148.340952 256.147 
L 149.869058 255.227 
L 151.397163 254.56 
L 152.925269 253.249 
L 155.981479 251.754 
L 157.509585 251.248 
L 159.03769 250.42 
L 162.093901 249.063 
L 163.622006 248.557 
L 165.150112 247.315 
L 166.678217 246.74 
L 168.206322 246.027 
L 169.734428 245.544 
L 174.318744 242.37 
L 175.846849 241.68 
L 177.374955 240.53 
L 178.90306 239.679 
L 180.431165 238.161 
L 181.959271 237.632 
L 183.487376 236.321 
L 185.015481 235.286 
L 186.543587 233.4 
L 189.599798 231.537 
L 192.656008 228.984 
L 194.184114 228.064 
L 195.712219 226.615 
L 197.240324 225.718 
L 198.76843 223.901 
L 200.296535 223.096 
L 201.82464 221.532 
L 203.352746 220.75 
L 204.880851 218.703 
L 206.408957 218.013 
L 207.937062 216.058 
L 209.465167 215.437 
L 210.993273 213.482 
L 212.521378 212.999 
L 215.577589 210.745 
L 217.105694 209.158 
L 218.6338 208.422 
L 220.161905 206.904 
L 221.69001 205.915 
L 224.746221 203.316 
L 226.274326 201.545 
L 230.858643 197.313 
L 232.386748 195.772 
L 233.914853 194.484 
L 235.442959 192.46 
L 236.971064 191.241 
L 238.499169 189.378 
L 240.027275 188.366 
L 243.083486 185.905 
L 244.611591 184.226 
L 246.139696 183.306 
L 247.667802 181.351 
L 249.195907 180.224 
L 250.724012 178.223 
L 252.252118 176.751 
L 256.836434 170.794 
L 258.364539 169.575 
L 259.892645 167.275 
L 261.42075 166.332 
L 262.948855 164.699 
L 264.476961 163.342 
L 266.005066 161.387 
L 267.533171 160.237 
L 269.061277 158.696 
L 270.589382 157.385 
L 272.117488 155.453 
L 273.645593 154.165 
L 275.173698 151.98 
L 278.229909 149.634 
L 281.28612 146.69 
L 282.814225 144.482 
L 284.342331 143.056 
L 287.398541 139.422 
L 288.926647 138.594 
L 290.454752 136.754 
L 291.982857 135.696 
L 295.039068 132.729 
L 296.567174 132.085 
L 298.095279 129.739 
L 299.623384 129.141 
L 301.15149 128.29 
L 302.679595 126.45 
L 305.735806 124.104 
L 310.320122 121.436 
L 311.848227 119.366 
L 314.904438 116.721 
L 316.432543 116.077 
L 317.960649 114.973 
L 319.488754 113.34 
L 322.544965 110.764 
L 324.07307 109.821 
L 325.601176 108.625 
L 327.129281 105.037 
L 330.185492 103.013 
L 331.713597 102.162 
L 334.769808 99.931 
L 337.826019 97.493 
L 339.354124 95.308 
L 346.994651 89.581 
L 348.522756 87.833 
L 351.578967 86.246 
L 353.107072 84.567 
L 354.635178 83.716 
L 356.163283 82.244 
L 357.691388 81.554 
L 359.219494 80.059 
L 360.747599 79.254 
L 362.275705 77.759 
L 363.80381 76.77 
L 365.331915 75.114 
L 371.444337 71.779 
L 372.972442 70.652 
L 376.028653 68.812 
L 377.556758 67.363 
L 379.084864 66.213 
L 380.612969 64.281 
L 382.141074 62.74 
L 383.66918 62.142 
L 385.197285 60.256 
L 386.72539 59.75 
L 388.253496 58.324 
L 389.781601 56.461 
L 391.309707 54.138 
L 392.837812 52.597 
L 394.365917 51.953 
L 397.422128 51.7 
L 397.422128 51.7 
" clip-path="url(#pd482ab6b90)" style="fill: none; stroke: #0000ff; stroke-width: 3; stroke-linecap: square"/>
   </g>
   <g id="line2d_14">
    <path d="M 91.801054 281.539 
L 93.329159 278.963 
L 94.857264 269.441 
L 96.38537 266.819 
L 99.441581 260.379 
L 100.969686 255.94 
L 102.497791 252.214 
L 104.025897 248.166 
L 105.554002 246.832 
L 107.082107 240.944 
L 108.610213 236.137 
L 110.138318 231.744 
L 111.666424 228.961 
L 113.194529 224.913 
L 114.722634 223.027 
L 116.25074 219.715 
L 117.778845 218.335 
L 119.30695 215.943 
L 120.835056 214.126 
L 122.363161 211.665 
L 123.891267 210.032 
L 126.947477 205.041 
L 128.475583 200.947 
L 130.003688 198.739 
L 131.531793 196.14 
L 133.059899 193.817 
L 134.588004 190.183 
L 136.11611 187.975 
L 137.644215 184.939 
L 139.17232 183.007 
L 140.700426 180.408 
L 142.228531 178.476 
L 143.756636 176.291 
L 149.869058 169.552 
L 151.397163 168.333 
L 152.925269 159.685 
L 154.453374 157.408 
L 155.981479 154.648 
L 157.509585 153.13 
L 159.03769 151.152 
L 160.565795 149.749 
L 162.093901 147.84 
L 163.622006 146.322 
L 165.150112 143.7 
L 166.678217 142.274 
L 168.206322 140.365 
L 169.734428 138.916 
L 171.262533 136.961 
L 172.790638 135.558 
L 174.318744 133.603 
L 175.846849 132.2 
L 177.374955 130.245 
L 178.90306 128.957 
L 180.431165 126.956 
L 181.959271 126.105 
L 183.487376 124.449 
L 185.015481 123.345 
L 186.543587 121.643 
L 188.071692 120.746 
L 189.599798 119.32 
L 191.127903 118.262 
L 195.712219 114.559 
L 197.240324 113.455 
L 198.76843 111.615 
L 200.296535 111.04 
L 201.82464 109.591 
L 203.352746 108.947 
L 204.880851 107.199 
L 206.408957 106.532 
L 207.937062 104.876 
L 209.465167 104.163 
L 210.993273 102.944 
L 212.521378 102.415 
L 214.049483 101.564 
L 215.577589 100.575 
L 217.105694 99.356 
L 218.6338 98.873 
L 220.161905 97.562 
L 221.69001 96.711 
L 223.218116 95.515 
L 224.746221 94.894 
L 226.274326 93.652 
L 230.858643 91.145 
L 232.386748 90.271 
L 233.914853 89.834 
L 235.442959 88.799 
L 236.971064 88.316 
L 238.499169 87.442 
L 240.027275 86.982 
L 243.083486 85.74 
L 244.611591 84.912 
L 246.139696 84.475 
L 247.667802 83.785 
L 250.724012 82.842 
L 252.252118 82.313 
L 256.836434 80.312 
L 258.364539 79.99 
L 259.892645 79.162 
L 266.005066 77.138 
L 267.533171 76.885 
L 273.645593 75.045 
L 275.173698 74.332 
L 276.701804 74.056 
L 281.28612 72.722 
L 287.398541 70.905 
L 291.982857 70.031 
L 293.510963 69.686 
L 296.567174 69.272 
L 298.095279 68.674 
L 301.15149 68.283 
L 302.679595 67.892 
L 305.735806 67.363 
L 307.263911 67.018 
L 310.320122 66.558 
L 311.848227 66.167 
L 314.904438 65.546 
L 316.432543 65.362 
L 317.960649 65.04 
L 322.544965 63.844 
L 324.07307 63.614 
L 325.601176 63.246 
L 327.129281 62.602 
L 336.297913 61.13 
L 339.354124 60.21 
L 343.93844 59.52 
L 346.994651 58.945 
L 348.522756 58.6 
L 351.578967 58.117 
L 353.107072 57.634 
L 357.691388 56.921 
L 359.219494 56.553 
L 360.747599 56.461 
L 362.275705 56.185 
L 363.80381 56.047 
L 365.331915 55.748 
L 368.388126 55.495 
L 371.444337 55.288 
L 372.972442 54.989 
L 377.556758 54.345 
L 382.141074 53.517 
L 383.66918 53.425 
L 385.197285 53.126 
L 386.72539 53.034 
L 388.253496 52.827 
L 389.781601 52.505 
L 391.309707 51.953 
L 394.365917 51.723 
L 397.422128 51.7 
L 397.422128 51.7 
" clip-path="url(#pd482ab6b90)" style="fill: none; stroke-dasharray: 11.1,4.8; stroke-dashoffset: 0; stroke: #008000; stroke-width: 3"/>
   </g>
   <g id="line2d_15">
    <path d="M 91.801054 281.677 
L 93.329159 280.619 
L 94.857264 276.594 
L 96.38537 275.398 
L 97.913475 273.673 
L 99.441581 272.408 
L 100.969686 270.154 
L 102.497791 268.429 
L 104.025897 266.52 
L 105.554002 265.784 
L 107.082107 262.794 
L 108.610213 260.287 
L 110.138318 258.286 
L 111.666424 256.86 
L 113.194529 254.238 
L 114.722634 253.226 
L 116.25074 251.386 
L 117.778845 250.42 
L 119.30695 249.293 
L 122.363161 246.74 
L 123.891267 245.613 
L 125.419372 244.026 
L 126.947477 242.784 
L 128.475583 240.231 
L 130.003688 238.966 
L 131.531793 237.172 
L 133.059899 235.815 
L 134.588004 233.17 
L 136.11611 231.652 
L 137.644215 229.674 
L 139.17232 228.317 
L 140.700426 226.454 
L 142.228531 224.913 
L 143.756636 223.073 
L 145.284742 221.969 
L 146.812847 220.474 
L 148.340952 219.37 
L 149.869058 217.806 
L 151.397163 216.817 
L 152.925269 211.987 
L 154.453374 210.561 
L 155.981479 208.33 
L 157.509585 207.387 
L 159.03769 205.777 
L 160.565795 204.535 
L 162.093901 202.948 
L 163.622006 201.062 
L 165.150112 198.463 
L 166.678217 197.06 
L 168.206322 195.036 
L 169.734428 193.909 
L 171.262533 192.115 
L 172.790638 190.505 
L 174.318744 188.32 
L 175.846849 186.756 
L 177.374955 184.617 
L 178.90306 182.961 
L 180.431165 180.477 
L 181.959271 179.258 
L 183.487376 177.464 
L 185.015481 176.498 
L 186.543587 174.313 
L 188.071692 173.048 
L 189.599798 171.185 
L 191.127903 169.598 
L 194.184114 166.792 
L 197.240324 163.756 
L 198.76843 161.64 
L 200.296535 160.628 
L 201.82464 158.489 
L 203.352746 157.592 
L 204.880851 155.108 
L 206.408957 154.326 
L 207.937062 152.003 
L 209.465167 151.267 
L 210.993273 149.335 
L 212.521378 148.691 
L 214.049483 147.449 
L 215.577589 146.483 
L 217.105694 144.919 
L 218.6338 144.091 
L 220.161905 142.32 
L 221.69001 141.262 
L 223.218116 139.629 
L 224.746221 138.663 
L 226.274326 136.731 
L 227.802432 135.466 
L 229.330537 133.994 
L 232.386748 131.349 
L 233.914853 130.567 
L 235.442959 128.819 
L 236.971064 128.037 
L 238.499169 126.45 
L 240.027275 125.599 
L 243.083486 123.506 
L 244.611591 122.126 
L 246.139696 121.436 
L 247.667802 120.102 
L 249.195907 119.182 
L 250.724012 117.871 
L 256.836434 113.133 
L 258.364539 112.42 
L 259.892645 111.04 
L 261.42075 110.189 
L 262.948855 108.878 
L 264.476961 107.981 
L 266.005066 106.601 
L 267.533171 105.842 
L 269.061277 104.554 
L 270.589382 103.68 
L 272.117488 102.576 
L 273.645593 101.748 
L 275.173698 100.483 
L 276.701804 99.77 
L 285.870436 94.618 
L 287.398541 93.56 
L 288.926647 93.008 
L 290.454752 92.019 
L 291.982857 91.605 
L 293.510963 90.708 
L 295.039068 89.972 
L 296.567174 89.512 
L 298.095279 88.339 
L 301.15149 87.465 
L 302.679595 86.453 
L 308.792017 84.038 
L 310.320122 83.555 
L 311.848227 82.543 
L 317.960649 80.68 
L 321.01686 78.817 
L 325.601176 77.138 
L 327.129281 75.62 
L 330.185492 74.493 
L 331.713597 74.102 
L 337.826019 71.572 
L 339.354124 70.583 
L 343.93844 69.111 
L 345.466545 68.628 
L 346.994651 68.007 
L 348.522756 67.11 
L 351.578967 66.213 
L 353.107072 65.247 
L 354.635178 64.856 
L 356.163283 64.074 
L 357.691388 63.798 
L 359.219494 63.131 
L 360.747599 62.763 
L 362.275705 62.142 
L 363.80381 61.866 
L 365.331915 61.176 
L 368.388126 60.348 
L 369.916231 60.164 
L 371.444337 59.842 
L 372.972442 59.267 
L 376.028653 58.531 
L 377.556758 57.795 
L 379.084864 57.289 
L 380.612969 56.461 
L 382.141074 55.817 
L 383.66918 55.518 
L 385.197285 54.828 
L 386.72539 54.667 
L 388.253496 54.184 
L 389.781601 53.448 
L 391.309707 52.482 
L 392.837812 51.976 
L 394.365917 51.746 
L 397.422128 51.7 
L 397.422128 51.7 
" clip-path="url(#pd482ab6b90)" style="fill: none; stroke-dasharray: 19.2,4.8,3,4.8; stroke-dashoffset: 0; stroke: #00bfbf; stroke-width: 3"/>
   </g>
   <g id="line2d_16">
    <path d="M 91.801054 281.677 
L 93.329159 281.102 
L 94.857264 279.032 
L 96.38537 278.411 
L 97.913475 277.56 
L 99.441581 276.893 
L 102.497791 274.892 
L 104.025897 273.903 
L 105.554002 273.558 
L 107.082107 272.063 
L 110.138318 269.556 
L 111.666424 268.912 
L 113.194529 267.647 
L 114.722634 267.118 
L 116.25074 266.037 
L 117.778845 265.554 
L 119.30695 264.818 
L 120.835056 264.22 
L 122.363161 263.415 
L 123.891267 262.84 
L 125.419372 261.874 
L 126.947477 261.138 
L 128.475583 259.712 
L 130.003688 258.884 
L 131.531793 257.78 
L 133.059899 256.952 
L 134.588004 255.457 
L 136.11611 254.675 
L 137.644215 253.433 
L 139.17232 252.697 
L 140.700426 251.593 
L 142.228531 250.811 
L 143.756636 249.868 
L 145.284742 249.201 
L 146.812847 248.212 
L 148.340952 247.568 
L 149.869058 246.648 
L 151.397163 246.05 
L 152.925269 243.658 
L 154.453374 242.876 
L 155.981479 241.749 
L 157.509585 241.128 
L 159.03769 240.139 
L 160.565795 239.426 
L 163.622006 237.701 
L 165.150112 236.321 
L 166.678217 235.493 
L 168.206322 234.458 
L 169.734428 233.768 
L 172.790638 231.859 
L 174.318744 230.479 
L 175.846849 229.674 
L 177.374955 228.363 
L 178.90306 227.535 
L 180.431165 225.856 
L 181.959271 224.867 
L 183.487376 223.648 
L 185.015481 222.843 
L 186.543587 221.394 
L 188.071692 220.566 
L 189.599798 219.439 
L 191.127903 218.496 
L 192.656008 217.3 
L 194.184114 216.38 
L 197.240324 214.011 
L 198.76843 212.332 
L 200.296535 211.734 
L 201.82464 210.009 
L 203.352746 209.25 
L 204.880851 207.479 
L 206.408957 206.697 
L 207.937062 204.972 
L 209.465167 204.282 
L 210.993273 202.764 
L 212.521378 202.212 
L 214.049483 200.993 
L 215.577589 200.096 
L 217.105694 198.762 
L 218.6338 198.141 
L 220.161905 196.669 
L 221.69001 195.795 
L 223.218116 194.369 
L 224.746221 193.472 
L 227.802432 190.758 
L 230.858643 188.412 
L 232.386748 187.101 
L 233.914853 186.25 
L 235.442959 184.502 
L 236.971064 183.743 
L 238.499169 181.949 
L 240.027275 181.029 
L 243.083486 178.844 
L 244.611591 177.441 
L 246.139696 176.751 
L 247.667802 175.463 
L 249.195907 174.474 
L 250.724012 173.14 
L 252.252118 172.22 
L 256.836434 168.333 
L 258.364539 167.643 
L 259.892645 166.125 
L 261.42075 165.274 
L 262.948855 163.917 
L 264.476961 163.066 
L 266.005066 161.663 
L 267.533171 160.835 
L 269.061277 159.409 
L 270.589382 158.443 
L 272.117488 157.017 
L 273.645593 156.005 
L 275.173698 154.464 
L 276.701804 153.728 
L 284.342331 147.771 
L 287.398541 145.011 
L 288.926647 144.367 
L 290.454752 143.033 
L 291.982857 142.182 
L 293.510963 140.802 
L 296.567174 139.307 
L 298.095279 137.697 
L 299.623384 137.168 
L 301.15149 136.455 
L 302.679595 134.822 
L 307.263911 131.855 
L 310.320122 130.314 
L 311.848227 128.589 
L 317.960649 124.771 
L 321.01686 121.436 
L 325.601176 118.078 
L 327.129281 115.571 
L 330.185492 113.202 
L 331.713597 112.19 
L 333.241702 110.718 
L 334.769808 109.706 
L 337.826019 107.015 
L 339.354124 104.554 
L 343.93844 101.173 
L 345.466545 99.954 
L 346.994651 98.298 
L 348.522756 96.343 
L 351.578967 94.158 
L 353.107072 91.927 
L 354.635178 90.639 
L 356.163283 89.075 
L 357.691388 88.132 
L 359.219494 86.269 
L 360.747599 85.349 
L 362.275705 83.486 
L 363.80381 82.474 
L 365.331915 80.335 
L 368.388126 78.127 
L 369.916231 77.437 
L 371.444337 76.356 
L 372.972442 74.746 
L 376.028653 72.469 
L 377.556758 70.514 
L 379.084864 68.904 
L 380.612969 66.236 
L 382.141074 64.189 
L 383.66918 63.384 
L 385.197285 61.245 
L 386.72539 60.647 
L 388.253496 59.129 
L 389.781601 57.013 
L 391.309707 54.138 
L 392.837812 52.574 
L 394.365917 51.907 
L 395.894023 51.746 
L 397.422128 51.7 
L 397.422128 51.7 
" clip-path="url(#pd482ab6b90)" style="fill: none; stroke-dasharray: 3,4.95; stroke-dashoffset: 0; stroke: #ff0000; stroke-width: 3"/>
   </g>
   <g id="patch_3">
    <path d="M 76.52 293.2 
L 76.52 40.2 
" style="fill: none; stroke: #000000; stroke-width: 0.8; stroke-linejoin: miter; stroke-linecap: square"/>
   </g>
   <g id="patch_4">
    <path d="M 412.703182 293.2 
L 412.703182 40.2 
" style="fill: none; stroke: #000000; stroke-width: 0.8; stroke-linejoin: miter; stroke-linecap: square"/>
   </g>
   <g id="patch_5">
    <path d="M 76.52 293.2 
L 412.703182 293.2 
" style="fill: none; stroke: #000000; stroke-width: 0.8; stroke-linejoin: miter; stroke-linecap: square"/>
   </g>
   <g id="patch_6">
    <path d="M 76.52 40.2 
L 412.703182 40.2 
" style="fill: none; stroke: #000000; stroke-width: 0.8; stroke-linejoin: miter; stroke-linecap: square"/>
   </g>
   <g id="text_15">
    <!-- Cumulative density -->
    <g transform="translate(145.754466 34.2) scale(0.204 -0.204)">
     <defs>
      <path id="DejaVuSans-43" d="M 4122 4306 
L 4122 3641 
Q 3803 3938 3442 4084 
Q 3081 4231 2675 4231 
Q 1875 4231 1450 3742 
Q 1025 3253 1025 2328 
Q 1025 1406 1450 917 
Q 1875 428 2675 428 
Q 3081 428 3442 575 
Q 3803 722 4122 1019 
L 4122 359 
Q 3791 134 3420 21 
Q 3050 -91 2638 -91 
Q 1578 -91 968 557 
Q 359 1206 359 2328 
Q 359 3453 968 4101 
Q 1578 4750 2638 4750 
Q 3056 4750 3426 4639 
Q 3797 4528 4122 4306 
z
" transform="scale(0.015625)"/>
      <path id="DejaVuSans-75" d="M 544 1381 
L 544 3500 
L 1119 3500 
L 1119 1403 
Q 1119 906 1312 657 
Q 1506 409 1894 409 
Q 2359 409 2629 706 
Q 2900 1003 2900 1516 
L 2900 3500 
L 3475 3500 
L 3475 0 
L 2900 0 
L 2900 538 
Q 2691 219 2414 64 
Q 2138 -91 1772 -91 
Q 1169 -91 856 284 
Q 544 659 544 1381 
z
M 1991 3584 
L 1991 3584 
z
" transform="scale(0.015625)"/>
      <path id="DejaVuSans-6d" d="M 3328 2828 
Q 3544 3216 3844 3400 
Q 4144 3584 4550 3584 
Q 5097 3584 5394 3201 
Q 5691 2819 5691 2113 
L 5691 0 
L 5113 0 
L 5113 2094 
Q 5113 2597 4934 2840 
Q 4756 3084 4391 3084 
Q 3944 3084 3684 2787 
Q 3425 2491 3425 1978 
L 3425 0 
L 2847 0 
L 2847 2094 
Q 2847 2600 2669 2842 
Q 2491 3084 2119 3084 
Q 1678 3084 1418 2786 
Q 1159 2488 1159 1978 
L 1159 0 
L 581 0 
L 581 3500 
L 1159 3500 
L 1159 2956 
Q 1356 3278 1631 3431 
Q 1906 3584 2284 3584 
Q 2666 3584 2933 3390 
Q 3200 3197 3328 2828 
z
" transform="scale(0.015625)"/>
      <path id="DejaVuSans-6c" d="M 603 4863 
L 1178 4863 
L 1178 0 
L 603 0 
L 603 4863 
z
" transform="scale(0.015625)"/>
      <path id="DejaVuSans-61" d="M 2194 1759 
Q 1497 1759 1228 1600 
Q 959 1441 959 1056 
Q 959 750 1161 570 
Q 1363 391 1709 391 
Q 2188 391 2477 730 
Q 2766 1069 2766 1631 
L 2766 1759 
L 2194 1759 
z
M 3341 1997 
L 3341 0 
L 2766 0 
L 2766 531 
Q 2569 213 2275 61 
Q 1981 -91 1556 -91 
Q 1019 -91 701 211 
Q 384 513 384 1019 
Q 384 1609 779 1909 
Q 1175 2209 1959 2209 
L 2766 2209 
L 2766 2266 
Q 2766 2663 2505 2880 
Q 2244 3097 1772 3097 
Q 1472 3097 1187 3025 
Q 903 2953 641 2809 
L 641 3341 
Q 956 3463 1253 3523 
Q 1550 3584 1831 3584 
Q 2591 3584 2966 3190 
Q 3341 2797 3341 1997 
z
" transform="scale(0.015625)"/>
      <path id="DejaVuSans-76" d="M 191 3500 
L 800 3500 
L 1894 563 
L 2988 3500 
L 3597 3500 
L 2284 0 
L 1503 0 
L 191 3500 
z
" transform="scale(0.015625)"/>
      <path id="DejaVuSans-20" transform="scale(0.015625)"/>
      <path id="DejaVuSans-64" d="M 2906 2969 
L 2906 4863 
L 3481 4863 
L 3481 0 
L 2906 0 
L 2906 525 
Q 2725 213 2448 61 
Q 2172 -91 1784 -91 
Q 1150 -91 751 415 
Q 353 922 353 1747 
Q 353 2572 751 3078 
Q 1150 3584 1784 3584 
Q 2172 3584 2448 3432 
Q 2725 3281 2906 2969 
z
M 947 1747 
Q 947 1113 1208 752 
Q 1469 391 1925 391 
Q 2381 391 2643 752 
Q 2906 1113 2906 1747 
Q 2906 2381 2643 2742 
Q 2381 3103 1925 3103 
Q 1469 3103 1208 2742 
Q 947 2381 947 1747 
z
" transform="scale(0.015625)"/>
     </defs>
     <use xlink:href="#DejaVuSans-43"/>
     <use xlink:href="#DejaVuSans-75" x="69.824219"/>
     <use xlink:href="#DejaVuSans-6d" x="133.203125"/>
     <use xlink:href="#DejaVuSans-75" x="230.615234"/>
     <use xlink:href="#DejaVuSans-6c" x="293.994141"/>
     <use xlink:href="#DejaVuSans-61" x="321.777344"/>
     <use xlink:href="#DejaVuSans-74" x="383.056641"/>
     <use xlink:href="#DejaVuSans-69" x="422.265625"/>
     <use xlink:href="#DejaVuSans-76" x="450.048828"/>
     <use xlink:href="#DejaVuSans-65" x="509.228516"/>
     <use xlink:href="#DejaVuSans-20" x="570.751953"/>
     <use xlink:href="#DejaVuSans-64" x="602.539062"/>
     <use xlink:href="#DejaVuSans-65" x="666.015625"/>
     <use xlink:href="#DejaVuSans-6e" x="727.539062"/>
     <use xlink:href="#DejaVuSans-73" x="790.917969"/>
     <use xlink:href="#DejaVuSans-69" x="843.017578"/>
     <use xlink:href="#DejaVuSans-74" x="870.800781"/>
     <use xlink:href="#DejaVuSans-79" x="910.009766"/>
    </g>
   </g>
   <g id="legend_1">
    <g id="patch_7">
     <path d="M 273.985838 284.7 
L 400.803182 284.7 
Q 404.203182 284.7 404.203182 281.3 
L 404.203182 183.18875 
Q 404.203182 179.78875 400.803182 179.78875 
L 273.985838 179.78875 
Q 270.585838 179.78875 270.585838 183.18875 
L 270.585838 281.3 
Q 270.585838 284.7 273.985838 284.7 
z
" style="fill: #ffffff; opacity: 0.8; stroke: #cccccc; stroke-linejoin: miter"/>
    </g>
    <g id="line2d_17">
     <path d="M 277.385838 193.556094 
L 294.385838 193.556094 
L 311.385838 193.556094 
" style="fill: none; stroke: #0000ff; stroke-width: 3; stroke-linecap: square"/>
    </g>
    <g id="text_16">
     <!-- Asian -->
     <g transform="translate(324.985838 199.506094) scale(0.17 -0.17)">
      <defs>
       <path id="DejaVuSans-41" d="M 2188 4044 
L 1331 1722 
L 3047 1722 
L 2188 4044 
z
M 1831 4666 
L 2547 4666 
L 4325 0 
L 3669 0 
L 3244 1197 
L 1141 1197 
L 716 0 
L 50 0 
L 1831 4666 
z
" transform="scale(0.015625)"/>
      </defs>
      <use xlink:href="#DejaVuSans-41"/>
      <use xlink:href="#DejaVuSans-73" x="68.408203"/>
      <use xlink:href="#DejaVuSans-69" x="120.507812"/>
      <use xlink:href="#DejaVuSans-61" x="148.291016"/>
      <use xlink:href="#DejaVuSans-6e" x="209.570312"/>
     </g>
    </g>
    <g id="line2d_18">
     <path d="M 277.385838 218.508906 
L 294.385838 218.508906 
L 311.385838 218.508906 
" style="fill: none; stroke-dasharray: 11.1,4.8; stroke-dashoffset: 0; stroke: #008000; stroke-width: 3"/>
    </g>
    <g id="text_17">
     <!-- Black -->
     <g transform="translate(324.985838 224.458906) scale(0.17 -0.17)">
      <defs>
       <path id="DejaVuSans-42" d="M 1259 2228 
L 1259 519 
L 2272 519 
Q 2781 519 3026 730 
Q 3272 941 3272 1375 
Q 3272 1813 3026 2020 
Q 2781 2228 2272 2228 
L 1259 2228 
z
M 1259 4147 
L 1259 2741 
L 2194 2741 
Q 2656 2741 2882 2914 
Q 3109 3088 3109 3444 
Q 3109 3797 2882 3972 
Q 2656 4147 2194 4147 
L 1259 4147 
z
M 628 4666 
L 2241 4666 
Q 2963 4666 3353 4366 
Q 3744 4066 3744 3513 
Q 3744 3084 3544 2831 
Q 3344 2578 2956 2516 
Q 3422 2416 3680 2098 
Q 3938 1781 3938 1306 
Q 3938 681 3513 340 
Q 3088 0 2303 0 
L 628 0 
L 628 4666 
z
" transform="scale(0.015625)"/>
       <path id="DejaVuSans-6b" d="M 581 4863 
L 1159 4863 
L 1159 1991 
L 2875 3500 
L 3609 3500 
L 1753 1863 
L 3688 0 
L 2938 0 
L 1159 1709 
L 1159 0 
L 581 0 
L 581 4863 
z
" transform="scale(0.015625)"/>
      </defs>
      <use xlink:href="#DejaVuSans-42"/>
      <use xlink:href="#DejaVuSans-6c" x="68.603516"/>
      <use xlink:href="#DejaVuSans-61" x="96.386719"/>
      <use xlink:href="#DejaVuSans-63" x="157.666016"/>
      <use xlink:href="#DejaVuSans-6b" x="212.646484"/>
     </g>
    </g>
    <g id="line2d_19">
     <path d="M 277.385838 243.461719 
L 294.385838 243.461719 
L 311.385838 243.461719 
" style="fill: none; stroke-dasharray: 19.2,4.8,3,4.8; stroke-dashoffset: 0; stroke: #00bfbf; stroke-width: 3"/>
    </g>
    <g id="text_18">
     <!-- Hispanic -->
     <g transform="translate(324.985838 249.411719) scale(0.17 -0.17)">
      <defs>
       <path id="DejaVuSans-48" d="M 628 4666 
L 1259 4666 
L 1259 2753 
L 3553 2753 
L 3553 4666 
L 4184 4666 
L 4184 0 
L 3553 0 
L 3553 2222 
L 1259 2222 
L 1259 0 
L 628 0 
L 628 4666 
z
" transform="scale(0.015625)"/>
       <path id="DejaVuSans-70" d="M 1159 525 
L 1159 -1331 
L 581 -1331 
L 581 3500 
L 1159 3500 
L 1159 2969 
Q 1341 3281 1617 3432 
Q 1894 3584 2278 3584 
Q 2916 3584 3314 3078 
Q 3713 2572 3713 1747 
Q 3713 922 3314 415 
Q 2916 -91 2278 -91 
Q 1894 -91 1617 61 
Q 1341 213 1159 525 
z
M 3116 1747 
Q 3116 2381 2855 2742 
Q 2594 3103 2138 3103 
Q 1681 3103 1420 2742 
Q 1159 2381 1159 1747 
Q 1159 1113 1420 752 
Q 1681 391 2138 391 
Q 2594 391 2855 752 
Q 3116 1113 3116 1747 
z
" transform="scale(0.015625)"/>
      </defs>
      <use xlink:href="#DejaVuSans-48"/>
      <use xlink:href="#DejaVuSans-69" x="75.195312"/>
      <use xlink:href="#DejaVuSans-73" x="102.978516"/>
      <use xlink:href="#DejaVuSans-70" x="155.078125"/>
      <use xlink:href="#DejaVuSans-61" x="218.554688"/>
      <use xlink:href="#DejaVuSans-6e" x="279.833984"/>
      <use xlink:href="#DejaVuSans-69" x="343.212891"/>
      <use xlink:href="#DejaVuSans-63" x="370.996094"/>
     </g>
    </g>
    <g id="line2d_20">
     <path d="M 277.385838 268.414531 
L 294.385838 268.414531 
L 311.385838 268.414531 
" style="fill: none; stroke-dasharray: 3,4.95; stroke-dashoffset: 0; stroke: #ff0000; stroke-width: 3"/>
    </g>
    <g id="text_19">
     <!-- White -->
     <g transform="translate(324.985838 274.364531) scale(0.17 -0.17)">
      <defs>
       <path id="DejaVuSans-57" d="M 213 4666 
L 850 4666 
L 1831 722 
L 2809 4666 
L 3519 4666 
L 4500 722 
L 5478 4666 
L 6119 4666 
L 4947 0 
L 4153 0 
L 3169 4050 
L 2175 0 
L 1381 0 
L 213 4666 
z
" transform="scale(0.015625)"/>
       <path id="DejaVuSans-68" d="M 3513 2113 
L 3513 0 
L 2938 0 
L 2938 2094 
Q 2938 2591 2744 2837 
Q 2550 3084 2163 3084 
Q 1697 3084 1428 2787 
Q 1159 2491 1159 1978 
L 1159 0 
L 581 0 
L 581 4863 
L 1159 4863 
L 1159 2956 
Q 1366 3272 1645 3428 
Q 1925 3584 2291 3584 
Q 2894 3584 3203 3211 
Q 3513 2838 3513 2113 
z
" transform="scale(0.015625)"/>
      </defs>
      <use xlink:href="#DejaVuSans-57"/>
      <use xlink:href="#DejaVuSans-68" x="98.876953"/>
      <use xlink:href="#DejaVuSans-69" x="162.255859"/>
      <use xlink:href="#DejaVuSans-74" x="190.039062"/>
      <use xlink:href="#DejaVuSans-65" x="229.248047"/>
     </g>
    </g>
   </g>
  </g>
 </g>
 <defs>
  <clipPath id="pd482ab6b90">
   <rect x="76.52" y="40.2" width="336.183182" height="253"/>
  </clipPath>
 </defs>
</svg>
